<?xml version="1.0" encoding="utf-8" standalone="no"?>
<!DOCTYPE svg PUBLIC "-//W3C//DTD SVG 1.1//EN"
  "http://www.w3.org/Graphics/SVG/1.1/DTD/svg11.dtd">
<!-- Created with matplotlib (https://matplotlib.org/) -->
<svg height="345.951471pt" version="1.1" viewBox="0 0 424.010625 345.951471" width="424.010625pt" xmlns="http://www.w3.org/2000/svg" xmlns:xlink="http://www.w3.org/1999/xlink">
 <metadata>
  <rdf:RDF xmlns:cc="http://creativecommons.org/ns#" xmlns:dc="http://purl.org/dc/elements/1.1/" xmlns:rdf="http://www.w3.org/1999/02/22-rdf-syntax-ns#">
   <cc:Work>
    <dc:type rdf:resource="http://purl.org/dc/dcmitype/StillImage"/>
    <dc:date>2021-01-21T20:33:13.758249</dc:date>
    <dc:format>image/svg+xml</dc:format>
    <dc:creator>
     <cc:Agent>
      <dc:title>Matplotlib v3.3.3, https://matplotlib.org/</dc:title>
     </cc:Agent>
    </dc:creator>
   </cc:Work>
  </rdf:RDF>
 </metadata>
 <defs>
  <style type="text/css">*{stroke-linecap:butt;stroke-linejoin:round;}</style>
 </defs>
 <g id="figure_1">
  <g id="patch_1">
   <path d="M 0 345.951471 
L 424.010625 345.951471 
L 424.010625 0 
L 0 0 
z
" style="fill:#ffffff;"/>
  </g>
  <g id="axes_1">
   <g id="patch_2">
    <path d="M 59.690625 288.430125 
L 416.810625 288.430125 
L 416.810625 22.318125 
L 59.690625 22.318125 
z
" style="fill:#ffffff;"/>
   </g>
   <g id="PolyCollection_1">
    <defs>
     <path d="M 151.471948 -69.617346 
L 146.469302 -69.617346 
L 145.972248 -72.060982 
L 145.400108 -74.504619 
L 144.746697 -76.948255 
L 144.006354 -79.391891 
L 143.17418 -81.835528 
L 142.24628 -84.279164 
L 141.220015 -86.7228 
L 140.094238 -89.166437 
L 138.869517 -91.610073 
L 137.548329 -94.053709 
L 136.135206 -96.497346 
L 134.636835 -98.940982 
L 133.062093 -101.384619 
L 131.422011 -103.828255 
L 129.729666 -106.271891 
L 127.999994 -108.715528 
L 126.249529 -111.159164 
L 124.496075 -113.6028 
L 122.758304 -116.046437 
L 121.055324 -118.490073 
L 119.406194 -120.933709 
L 117.829433 -123.377346 
L 116.342528 -125.820982 
L 114.961462 -128.264619 
L 113.700281 -130.708255 
L 112.570724 -133.151891 
L 111.581923 -135.595528 
L 110.740185 -138.039164 
L 110.048878 -140.4828 
L 109.508408 -142.926437 
L 109.116296 -145.370073 
L 108.867352 -147.813709 
L 108.753932 -150.257346 
L 108.766267 -152.700982 
L 108.892851 -155.144619 
L 109.120873 -157.588255 
L 109.43666 -160.031891 
L 109.826131 -162.475528 
L 110.275231 -164.919164 
L 110.770331 -167.3628 
L 111.298579 -169.806437 
L 111.848197 -172.250073 
L 112.408708 -174.693709 
L 112.971094 -177.137346 
L 113.527878 -179.580982 
L 114.073153 -182.024619 
L 114.602538 -184.468255 
L 115.11309 -186.911891 
L 115.603179 -189.355528 
L 116.072331 -191.799164 
L 116.521061 -194.2428 
L 116.950707 -196.686437 
L 117.363262 -199.130073 
L 117.761237 -201.573709 
L 118.147531 -204.017346 
L 118.525339 -206.460982 
L 118.898079 -208.904619 
L 119.269341 -211.348255 
L 119.642859 -213.791891 
L 120.022492 -216.235528 
L 120.41221 -218.679164 
L 120.816075 -221.1228 
L 121.238222 -223.566437 
L 121.682809 -226.010073 
L 122.15396 -228.453709 
L 122.65568 -230.897346 
L 123.191753 -233.340982 
L 123.76562 -235.784619 
L 124.380241 -238.228255 
L 125.037961 -240.671891 
L 125.740367 -243.115528 
L 126.488163 -245.559164 
L 127.281071 -248.0028 
L 128.117747 -250.446437 
L 128.995744 -252.890073 
L 129.911515 -255.333709 
L 130.86045 -257.777346 
L 131.836968 -260.220982 
L 132.834637 -262.664619 
L 133.846341 -265.108255 
L 134.864466 -267.551891 
L 135.881106 -269.995528 
L 136.888289 -272.439164 
L 137.878189 -274.8828 
L 138.843336 -277.326437 
L 139.776809 -279.770073 
L 140.6724 -282.213709 
L 141.524743 -284.657346 
L 142.329414 -287.100982 
L 143.082992 -289.544619 
L 143.783077 -291.988255 
L 144.42828 -294.431891 
L 145.018177 -296.875528 
L 145.553237 -299.319164 
L 146.034726 -301.7628 
L 146.464603 -304.206437 
L 146.845393 -306.650073 
L 147.18007 -309.093709 
L 147.471932 -311.537346 
L 150.469318 -311.537346 
L 150.469318 -311.537346 
L 150.76118 -309.093709 
L 151.095857 -306.650073 
L 151.476647 -304.206437 
L 151.906524 -301.7628 
L 152.388013 -299.319164 
L 152.923073 -296.875528 
L 153.51297 -294.431891 
L 154.158173 -291.988255 
L 154.858258 -289.544619 
L 155.611836 -287.100982 
L 156.416507 -284.657346 
L 157.26885 -282.213709 
L 158.164441 -279.770073 
L 159.097914 -277.326437 
L 160.063061 -274.8828 
L 161.052961 -272.439164 
L 162.060144 -269.995528 
L 163.076784 -267.551891 
L 164.094909 -265.108255 
L 165.106613 -262.664619 
L 166.104282 -260.220982 
L 167.0808 -257.777346 
L 168.029735 -255.333709 
L 168.945506 -252.890073 
L 169.823503 -250.446437 
L 170.660179 -248.0028 
L 171.453087 -245.559164 
L 172.200883 -243.115528 
L 172.903289 -240.671891 
L 173.561009 -238.228255 
L 174.17563 -235.784619 
L 174.749497 -233.340982 
L 175.28557 -230.897346 
L 175.78729 -228.453709 
L 176.258441 -226.010073 
L 176.703028 -223.566437 
L 177.125175 -221.1228 
L 177.52904 -218.679164 
L 177.918758 -216.235528 
L 178.298391 -213.791891 
L 178.671909 -211.348255 
L 179.043171 -208.904619 
L 179.415911 -206.460982 
L 179.793719 -204.017346 
L 180.180013 -201.573709 
L 180.577988 -199.130073 
L 180.990543 -196.686437 
L 181.420189 -194.2428 
L 181.868919 -191.799164 
L 182.338071 -189.355528 
L 182.82816 -186.911891 
L 183.338712 -184.468255 
L 183.868097 -182.024619 
L 184.413372 -179.580982 
L 184.970156 -177.137346 
L 185.532542 -174.693709 
L 186.093053 -172.250073 
L 186.642671 -169.806437 
L 187.170919 -167.3628 
L 187.666019 -164.919164 
L 188.115119 -162.475528 
L 188.50459 -160.031891 
L 188.820377 -157.588255 
L 189.048399 -155.144619 
L 189.174983 -152.700982 
L 189.187318 -150.257346 
L 189.073898 -147.813709 
L 188.824954 -145.370073 
L 188.432842 -142.926437 
L 187.892372 -140.4828 
L 187.201065 -138.039164 
L 186.359327 -135.595528 
L 185.370526 -133.151891 
L 184.240969 -130.708255 
L 182.979788 -128.264619 
L 181.598722 -125.820982 
L 180.111817 -123.377346 
L 178.535056 -120.933709 
L 176.885926 -118.490073 
L 175.182946 -116.046437 
L 173.445175 -113.6028 
L 171.691721 -111.159164 
L 169.941256 -108.715528 
L 168.211584 -106.271891 
L 166.519239 -103.828255 
L 164.879157 -101.384619 
L 163.304415 -98.940982 
L 161.806044 -96.497346 
L 160.392921 -94.053709 
L 159.071733 -91.610073 
L 157.847012 -89.166437 
L 156.721235 -86.7228 
L 155.69497 -84.279164 
L 154.76707 -81.835528 
L 153.934896 -79.391891 
L 153.194553 -76.948255 
L 152.541142 -74.504619 
L 151.969002 -72.060982 
L 151.471948 -69.617346 
z
" id="m0b10189021" style="stroke:#3f3f3f;stroke-width:1.5;"/>
    </defs>
    <g clip-path="url(#pf167a1cab7)">
     <use style="fill:#3274a1;stroke:#3f3f3f;stroke-width:1.5;" x="0" xlink:href="#m0b10189021" y="345.951471"/>
    </g>
   </g>
   <g id="PolyCollection_2">
    <defs>
     <path d="M 332.806821 -77.021503 
L 322.254429 -77.021503 
L 321.107809 -79.171987 
L 319.773022 -81.322471 
L 318.233879 -83.472956 
L 316.476112 -85.62344 
L 314.488216 -87.773925 
L 312.262346 -89.924409 
L 309.795212 -92.074894 
L 307.088938 -94.225378 
L 304.151833 -96.375862 
L 300.999023 -98.526347 
L 297.65289 -100.676831 
L 294.143269 -102.827316 
L 290.507373 -104.9778 
L 286.789393 -107.128285 
L 283.039784 -109.278769 
L 279.314226 -111.429253 
L 275.672271 -113.579738 
L 272.175736 -115.730222 
L 268.886882 -117.880707 
L 265.866456 -120.031191 
L 263.171686 -122.181676 
L 260.85432 -124.33216 
L 258.958793 -126.482644 
L 257.520632 -128.633129 
L 256.565168 -130.783613 
L 256.106625 -132.934098 
L 256.147631 -135.084582 
L 256.679185 -137.235066 
L 257.681075 -139.385551 
L 259.122723 -141.536035 
L 260.964419 -143.68652 
L 263.158867 -145.837004 
L 265.652983 -147.987489 
L 268.389834 -150.137973 
L 271.310634 -152.288457 
L 274.356706 -154.438942 
L 277.471315 -156.589426 
L 280.601298 -158.739911 
L 283.698439 -160.890395 
L 286.720524 -163.04088 
L 289.632077 -165.191364 
L 292.404745 -167.341848 
L 295.017358 -169.492333 
L 297.45569 -171.642817 
L 299.711949 -173.793302 
L 301.784062 -175.943786 
L 303.674799 -178.094271 
L 305.390805 -180.244755 
L 306.94159 -182.395239 
L 308.338542 -184.545724 
L 309.594002 -186.696208 
L 310.720457 -188.846693 
L 311.729865 -190.997177 
L 312.63315 -193.147662 
L 313.439864 -195.298146 
L 314.15802 -197.44863 
L 314.794087 -199.599115 
L 315.353124 -201.749599 
L 315.839033 -203.900084 
L 316.254891 -206.050568 
L 316.603333 -208.201052 
L 316.886954 -210.351537 
L 317.108693 -212.502021 
L 317.272166 -214.652506 
L 317.381934 -216.80299 
L 317.443679 -218.953475 
L 317.464277 -221.103959 
L 317.451768 -223.254443 
L 317.415222 -225.404928 
L 317.364518 -227.555412 
L 317.310039 -229.705897 
L 317.262318 -231.856381 
L 317.231649 -234.006866 
L 317.227691 -236.15735 
L 317.25909 -238.307834 
L 317.333144 -240.458319 
L 317.45552 -242.608803 
L 317.630063 -244.759288 
L 317.858672 -246.909772 
L 318.141281 -249.060257 
L 318.475921 -251.210741 
L 318.858868 -253.361225 
L 319.284866 -255.51171 
L 319.747398 -257.662194 
L 320.239002 -259.812679 
L 320.751612 -261.963163 
L 321.276894 -264.113647 
L 321.80657 -266.264132 
L 322.332716 -268.414616 
L 322.848016 -270.565101 
L 323.345961 -272.715585 
L 323.821004 -274.86607 
L 324.268648 -277.016554 
L 324.685488 -279.167038 
L 325.069197 -281.317523 
L 325.418473 -283.468007 
L 325.732949 -285.618492 
L 326.013083 -287.768976 
L 326.260024 -289.919461 
L 328.801226 -289.919461 
L 328.801226 -289.919461 
L 329.048167 -287.768976 
L 329.328301 -285.618492 
L 329.642777 -283.468007 
L 329.992053 -281.317523 
L 330.375762 -279.167038 
L 330.792602 -277.016554 
L 331.240246 -274.86607 
L 331.715289 -272.715585 
L 332.213234 -270.565101 
L 332.728534 -268.414616 
L 333.25468 -266.264132 
L 333.784356 -264.113647 
L 334.309638 -261.963163 
L 334.822248 -259.812679 
L 335.313852 -257.662194 
L 335.776384 -255.51171 
L 336.202382 -253.361225 
L 336.585329 -251.210741 
L 336.919969 -249.060257 
L 337.202578 -246.909772 
L 337.431187 -244.759288 
L 337.60573 -242.608803 
L 337.728106 -240.458319 
L 337.80216 -238.307834 
L 337.833559 -236.15735 
L 337.829601 -234.006866 
L 337.798932 -231.856381 
L 337.751211 -229.705897 
L 337.696732 -227.555412 
L 337.646028 -225.404928 
L 337.609482 -223.254443 
L 337.596973 -221.103959 
L 337.617571 -218.953475 
L 337.679316 -216.80299 
L 337.789084 -214.652506 
L 337.952557 -212.502021 
L 338.174296 -210.351537 
L 338.457917 -208.201052 
L 338.806359 -206.050568 
L 339.222217 -203.900084 
L 339.708126 -201.749599 
L 340.267163 -199.599115 
L 340.90323 -197.44863 
L 341.621386 -195.298146 
L 342.4281 -193.147662 
L 343.331385 -190.997177 
L 344.340793 -188.846693 
L 345.467248 -186.696208 
L 346.722708 -184.545724 
L 348.11966 -182.395239 
L 349.670445 -180.244755 
L 351.386451 -178.094271 
L 353.277188 -175.943786 
L 355.349301 -173.793302 
L 357.60556 -171.642817 
L 360.043892 -169.492333 
L 362.656505 -167.341848 
L 365.429173 -165.191364 
L 368.340726 -163.04088 
L 371.362811 -160.890395 
L 374.459952 -158.739911 
L 377.589935 -156.589426 
L 380.704544 -154.438942 
L 383.750616 -152.288457 
L 386.671416 -150.137973 
L 389.408267 -147.987489 
L 391.902383 -145.837004 
L 394.096831 -143.68652 
L 395.938527 -141.536035 
L 397.380175 -139.385551 
L 398.382065 -137.235066 
L 398.913619 -135.084582 
L 398.954625 -132.934098 
L 398.496082 -130.783613 
L 397.540618 -128.633129 
L 396.102457 -126.482644 
L 394.20693 -124.33216 
L 391.889564 -122.181676 
L 389.194794 -120.031191 
L 386.174368 -117.880707 
L 382.885514 -115.730222 
L 379.388979 -113.579738 
L 375.747024 -111.429253 
L 372.021466 -109.278769 
L 368.271857 -107.128285 
L 364.553877 -104.9778 
L 360.917981 -102.827316 
L 357.40836 -100.676831 
L 354.062227 -98.526347 
L 350.909417 -96.375862 
L 347.972312 -94.225378 
L 345.266038 -92.074894 
L 342.798904 -89.924409 
L 340.573034 -87.773925 
L 338.585138 -85.62344 
L 336.827371 -83.472956 
L 335.288228 -81.322471 
L 333.953441 -79.171987 
L 332.806821 -77.021503 
z
" id="m152bfa587c" style="stroke:#3f3f3f;stroke-width:1.5;"/>
    </defs>
    <g clip-path="url(#pf167a1cab7)">
     <use style="fill:#9fd495;stroke:#3f3f3f;stroke-width:1.5;" x="0" xlink:href="#m152bfa587c" y="345.951471"/>
    </g>
   </g>
   <g id="matplotlib.axis_1">
    <g id="xtick_1">
     <g id="line2d_1">
      <defs>
       <path d="M 0 0 
L 0 3.5 
" id="m415300f1a1" style="stroke:#000000;stroke-width:0.8;"/>
      </defs>
      <g>
       <use style="stroke:#000000;stroke-width:0.8;" x="148.970625" xlink:href="#m415300f1a1" y="288.430125"/>
      </g>
     </g>
     <g id="text_1">
      <!-- ifcg -->
      <g transform="translate(132.21648 311.083221)rotate(-30)scale(0.1 -0.1)">
       <defs>
        <path d="M 9.421875 54.6875 
L 18.40625 54.6875 
L 18.40625 0 
L 9.421875 0 
z
M 9.421875 75.984375 
L 18.40625 75.984375 
L 18.40625 64.59375 
L 9.421875 64.59375 
z
" id="DejaVuSans-105"/>
        <path d="M 37.109375 75.984375 
L 37.109375 68.5 
L 28.515625 68.5 
Q 23.6875 68.5 21.796875 66.546875 
Q 19.921875 64.59375 19.921875 59.515625 
L 19.921875 54.6875 
L 34.71875 54.6875 
L 34.71875 47.703125 
L 19.921875 47.703125 
L 19.921875 0 
L 10.890625 0 
L 10.890625 47.703125 
L 2.296875 47.703125 
L 2.296875 54.6875 
L 10.890625 54.6875 
L 10.890625 58.5 
Q 10.890625 67.625 15.140625 71.796875 
Q 19.390625 75.984375 28.609375 75.984375 
z
" id="DejaVuSans-102"/>
        <path d="M 48.78125 52.59375 
L 48.78125 44.1875 
Q 44.96875 46.296875 41.140625 47.34375 
Q 37.3125 48.390625 33.40625 48.390625 
Q 24.65625 48.390625 19.8125 42.84375 
Q 14.984375 37.3125 14.984375 27.296875 
Q 14.984375 17.28125 19.8125 11.734375 
Q 24.65625 6.203125 33.40625 6.203125 
Q 37.3125 6.203125 41.140625 7.25 
Q 44.96875 8.296875 48.78125 10.40625 
L 48.78125 2.09375 
Q 45.015625 0.34375 40.984375 -0.53125 
Q 36.96875 -1.421875 32.421875 -1.421875 
Q 20.0625 -1.421875 12.78125 6.34375 
Q 5.515625 14.109375 5.515625 27.296875 
Q 5.515625 40.671875 12.859375 48.328125 
Q 20.21875 56 33.015625 56 
Q 37.15625 56 41.109375 55.140625 
Q 45.0625 54.296875 48.78125 52.59375 
z
" id="DejaVuSans-99"/>
        <path d="M 45.40625 27.984375 
Q 45.40625 37.75 41.375 43.109375 
Q 37.359375 48.484375 30.078125 48.484375 
Q 22.859375 48.484375 18.828125 43.109375 
Q 14.796875 37.75 14.796875 27.984375 
Q 14.796875 18.265625 18.828125 12.890625 
Q 22.859375 7.515625 30.078125 7.515625 
Q 37.359375 7.515625 41.375 12.890625 
Q 45.40625 18.265625 45.40625 27.984375 
z
M 54.390625 6.78125 
Q 54.390625 -7.171875 48.1875 -13.984375 
Q 42 -20.796875 29.203125 -20.796875 
Q 24.46875 -20.796875 20.265625 -20.09375 
Q 16.0625 -19.390625 12.109375 -17.921875 
L 12.109375 -9.1875 
Q 16.0625 -11.328125 19.921875 -12.34375 
Q 23.78125 -13.375 27.78125 -13.375 
Q 36.625 -13.375 41.015625 -8.765625 
Q 45.40625 -4.15625 45.40625 5.171875 
L 45.40625 9.625 
Q 42.625 4.78125 38.28125 2.390625 
Q 33.9375 0 27.875 0 
Q 17.828125 0 11.671875 7.65625 
Q 5.515625 15.328125 5.515625 27.984375 
Q 5.515625 40.671875 11.671875 48.328125 
Q 17.828125 56 27.875 56 
Q 33.9375 56 38.28125 53.609375 
Q 42.625 51.21875 45.40625 46.390625 
L 45.40625 54.6875 
L 54.390625 54.6875 
z
" id="DejaVuSans-103"/>
       </defs>
       <use xlink:href="#DejaVuSans-105"/>
       <use x="27.783203" xlink:href="#DejaVuSans-102"/>
       <use x="62.988281" xlink:href="#DejaVuSans-99"/>
       <use x="117.96875" xlink:href="#DejaVuSans-103"/>
      </g>
     </g>
    </g>
    <g id="xtick_2">
     <g id="line2d_2">
      <g>
       <use style="stroke:#000000;stroke-width:0.8;" x="327.530625" xlink:href="#m415300f1a1" y="288.430125"/>
      </g>
     </g>
     <g id="text_2">
      <!-- libfuzzer -->
      <g transform="translate(289.664404 323.272284)rotate(-30)scale(0.1 -0.1)">
       <defs>
        <path d="M 9.421875 75.984375 
L 18.40625 75.984375 
L 18.40625 0 
L 9.421875 0 
z
" id="DejaVuSans-108"/>
        <path d="M 48.6875 27.296875 
Q 48.6875 37.203125 44.609375 42.84375 
Q 40.53125 48.484375 33.40625 48.484375 
Q 26.265625 48.484375 22.1875 42.84375 
Q 18.109375 37.203125 18.109375 27.296875 
Q 18.109375 17.390625 22.1875 11.75 
Q 26.265625 6.109375 33.40625 6.109375 
Q 40.53125 6.109375 44.609375 11.75 
Q 48.6875 17.390625 48.6875 27.296875 
z
M 18.109375 46.390625 
Q 20.953125 51.265625 25.265625 53.625 
Q 29.59375 56 35.59375 56 
Q 45.5625 56 51.78125 48.09375 
Q 58.015625 40.1875 58.015625 27.296875 
Q 58.015625 14.40625 51.78125 6.484375 
Q 45.5625 -1.421875 35.59375 -1.421875 
Q 29.59375 -1.421875 25.265625 0.953125 
Q 20.953125 3.328125 18.109375 8.203125 
L 18.109375 0 
L 9.078125 0 
L 9.078125 75.984375 
L 18.109375 75.984375 
z
" id="DejaVuSans-98"/>
        <path d="M 8.5 21.578125 
L 8.5 54.6875 
L 17.484375 54.6875 
L 17.484375 21.921875 
Q 17.484375 14.15625 20.5 10.265625 
Q 23.53125 6.390625 29.59375 6.390625 
Q 36.859375 6.390625 41.078125 11.03125 
Q 45.3125 15.671875 45.3125 23.6875 
L 45.3125 54.6875 
L 54.296875 54.6875 
L 54.296875 0 
L 45.3125 0 
L 45.3125 8.40625 
Q 42.046875 3.421875 37.71875 1 
Q 33.40625 -1.421875 27.6875 -1.421875 
Q 18.265625 -1.421875 13.375 4.4375 
Q 8.5 10.296875 8.5 21.578125 
z
M 31.109375 56 
z
" id="DejaVuSans-117"/>
        <path d="M 5.515625 54.6875 
L 48.1875 54.6875 
L 48.1875 46.484375 
L 14.40625 7.171875 
L 48.1875 7.171875 
L 48.1875 0 
L 4.296875 0 
L 4.296875 8.203125 
L 38.09375 47.515625 
L 5.515625 47.515625 
z
" id="DejaVuSans-122"/>
        <path d="M 56.203125 29.59375 
L 56.203125 25.203125 
L 14.890625 25.203125 
Q 15.484375 15.921875 20.484375 11.0625 
Q 25.484375 6.203125 34.421875 6.203125 
Q 39.59375 6.203125 44.453125 7.46875 
Q 49.3125 8.734375 54.109375 11.28125 
L 54.109375 2.78125 
Q 49.265625 0.734375 44.1875 -0.34375 
Q 39.109375 -1.421875 33.890625 -1.421875 
Q 20.796875 -1.421875 13.15625 6.1875 
Q 5.515625 13.8125 5.515625 26.8125 
Q 5.515625 40.234375 12.765625 48.109375 
Q 20.015625 56 32.328125 56 
Q 43.359375 56 49.78125 48.890625 
Q 56.203125 41.796875 56.203125 29.59375 
z
M 47.21875 32.234375 
Q 47.125 39.59375 43.09375 43.984375 
Q 39.0625 48.390625 32.421875 48.390625 
Q 24.90625 48.390625 20.390625 44.140625 
Q 15.875 39.890625 15.1875 32.171875 
z
" id="DejaVuSans-101"/>
        <path d="M 41.109375 46.296875 
Q 39.59375 47.171875 37.8125 47.578125 
Q 36.03125 48 33.890625 48 
Q 26.265625 48 22.1875 43.046875 
Q 18.109375 38.09375 18.109375 28.8125 
L 18.109375 0 
L 9.078125 0 
L 9.078125 54.6875 
L 18.109375 54.6875 
L 18.109375 46.1875 
Q 20.953125 51.171875 25.484375 53.578125 
Q 30.03125 56 36.53125 56 
Q 37.453125 56 38.578125 55.875 
Q 39.703125 55.765625 41.0625 55.515625 
z
" id="DejaVuSans-114"/>
       </defs>
       <use xlink:href="#DejaVuSans-108"/>
       <use x="27.783203" xlink:href="#DejaVuSans-105"/>
       <use x="55.566406" xlink:href="#DejaVuSans-98"/>
       <use x="119.042969" xlink:href="#DejaVuSans-102"/>
       <use x="154.248047" xlink:href="#DejaVuSans-117"/>
       <use x="217.626953" xlink:href="#DejaVuSans-122"/>
       <use x="270.117188" xlink:href="#DejaVuSans-122"/>
       <use x="322.607422" xlink:href="#DejaVuSans-101"/>
       <use x="384.130859" xlink:href="#DejaVuSans-114"/>
      </g>
     </g>
    </g>
    <g id="text_3">
     <!-- Fuzzer (highest median coverage on the left) -->
     <g transform="translate(125.632656 336.671783)scale(0.1 -0.1)">
      <defs>
       <path d="M 9.8125 72.90625 
L 51.703125 72.90625 
L 51.703125 64.59375 
L 19.671875 64.59375 
L 19.671875 43.109375 
L 48.578125 43.109375 
L 48.578125 34.8125 
L 19.671875 34.8125 
L 19.671875 0 
L 9.8125 0 
z
" id="DejaVuSans-70"/>
       <path id="DejaVuSans-32"/>
       <path d="M 31 75.875 
Q 24.46875 64.65625 21.28125 53.65625 
Q 18.109375 42.671875 18.109375 31.390625 
Q 18.109375 20.125 21.3125 9.0625 
Q 24.515625 -2 31 -13.1875 
L 23.1875 -13.1875 
Q 15.875 -1.703125 12.234375 9.375 
Q 8.59375 20.453125 8.59375 31.390625 
Q 8.59375 42.28125 12.203125 53.3125 
Q 15.828125 64.359375 23.1875 75.875 
z
" id="DejaVuSans-40"/>
       <path d="M 54.890625 33.015625 
L 54.890625 0 
L 45.90625 0 
L 45.90625 32.71875 
Q 45.90625 40.484375 42.875 44.328125 
Q 39.84375 48.1875 33.796875 48.1875 
Q 26.515625 48.1875 22.3125 43.546875 
Q 18.109375 38.921875 18.109375 30.90625 
L 18.109375 0 
L 9.078125 0 
L 9.078125 75.984375 
L 18.109375 75.984375 
L 18.109375 46.1875 
Q 21.34375 51.125 25.703125 53.5625 
Q 30.078125 56 35.796875 56 
Q 45.21875 56 50.046875 50.171875 
Q 54.890625 44.34375 54.890625 33.015625 
z
" id="DejaVuSans-104"/>
       <path d="M 44.28125 53.078125 
L 44.28125 44.578125 
Q 40.484375 46.53125 36.375 47.5 
Q 32.28125 48.484375 27.875 48.484375 
Q 21.1875 48.484375 17.84375 46.4375 
Q 14.5 44.390625 14.5 40.28125 
Q 14.5 37.15625 16.890625 35.375 
Q 19.28125 33.59375 26.515625 31.984375 
L 29.59375 31.296875 
Q 39.15625 29.25 43.1875 25.515625 
Q 47.21875 21.78125 47.21875 15.09375 
Q 47.21875 7.46875 41.1875 3.015625 
Q 35.15625 -1.421875 24.609375 -1.421875 
Q 20.21875 -1.421875 15.453125 -0.5625 
Q 10.6875 0.296875 5.421875 2 
L 5.421875 11.28125 
Q 10.40625 8.6875 15.234375 7.390625 
Q 20.0625 6.109375 24.8125 6.109375 
Q 31.15625 6.109375 34.5625 8.28125 
Q 37.984375 10.453125 37.984375 14.40625 
Q 37.984375 18.0625 35.515625 20.015625 
Q 33.0625 21.96875 24.703125 23.78125 
L 21.578125 24.515625 
Q 13.234375 26.265625 9.515625 29.90625 
Q 5.8125 33.546875 5.8125 39.890625 
Q 5.8125 47.609375 11.28125 51.796875 
Q 16.75 56 26.8125 56 
Q 31.78125 56 36.171875 55.265625 
Q 40.578125 54.546875 44.28125 53.078125 
z
" id="DejaVuSans-115"/>
       <path d="M 18.3125 70.21875 
L 18.3125 54.6875 
L 36.8125 54.6875 
L 36.8125 47.703125 
L 18.3125 47.703125 
L 18.3125 18.015625 
Q 18.3125 11.328125 20.140625 9.421875 
Q 21.96875 7.515625 27.59375 7.515625 
L 36.8125 7.515625 
L 36.8125 0 
L 27.59375 0 
Q 17.1875 0 13.234375 3.875 
Q 9.28125 7.765625 9.28125 18.015625 
L 9.28125 47.703125 
L 2.6875 47.703125 
L 2.6875 54.6875 
L 9.28125 54.6875 
L 9.28125 70.21875 
z
" id="DejaVuSans-116"/>
       <path d="M 52 44.1875 
Q 55.375 50.25 60.0625 53.125 
Q 64.75 56 71.09375 56 
Q 79.640625 56 84.28125 50.015625 
Q 88.921875 44.046875 88.921875 33.015625 
L 88.921875 0 
L 79.890625 0 
L 79.890625 32.71875 
Q 79.890625 40.578125 77.09375 44.375 
Q 74.3125 48.1875 68.609375 48.1875 
Q 61.625 48.1875 57.5625 43.546875 
Q 53.515625 38.921875 53.515625 30.90625 
L 53.515625 0 
L 44.484375 0 
L 44.484375 32.71875 
Q 44.484375 40.625 41.703125 44.40625 
Q 38.921875 48.1875 33.109375 48.1875 
Q 26.21875 48.1875 22.15625 43.53125 
Q 18.109375 38.875 18.109375 30.90625 
L 18.109375 0 
L 9.078125 0 
L 9.078125 54.6875 
L 18.109375 54.6875 
L 18.109375 46.1875 
Q 21.1875 51.21875 25.484375 53.609375 
Q 29.78125 56 35.6875 56 
Q 41.65625 56 45.828125 52.96875 
Q 50 49.953125 52 44.1875 
z
" id="DejaVuSans-109"/>
       <path d="M 45.40625 46.390625 
L 45.40625 75.984375 
L 54.390625 75.984375 
L 54.390625 0 
L 45.40625 0 
L 45.40625 8.203125 
Q 42.578125 3.328125 38.25 0.953125 
Q 33.9375 -1.421875 27.875 -1.421875 
Q 17.96875 -1.421875 11.734375 6.484375 
Q 5.515625 14.40625 5.515625 27.296875 
Q 5.515625 40.1875 11.734375 48.09375 
Q 17.96875 56 27.875 56 
Q 33.9375 56 38.25 53.625 
Q 42.578125 51.265625 45.40625 46.390625 
z
M 14.796875 27.296875 
Q 14.796875 17.390625 18.875 11.75 
Q 22.953125 6.109375 30.078125 6.109375 
Q 37.203125 6.109375 41.296875 11.75 
Q 45.40625 17.390625 45.40625 27.296875 
Q 45.40625 37.203125 41.296875 42.84375 
Q 37.203125 48.484375 30.078125 48.484375 
Q 22.953125 48.484375 18.875 42.84375 
Q 14.796875 37.203125 14.796875 27.296875 
z
" id="DejaVuSans-100"/>
       <path d="M 34.28125 27.484375 
Q 23.390625 27.484375 19.1875 25 
Q 14.984375 22.515625 14.984375 16.5 
Q 14.984375 11.71875 18.140625 8.90625 
Q 21.296875 6.109375 26.703125 6.109375 
Q 34.1875 6.109375 38.703125 11.40625 
Q 43.21875 16.703125 43.21875 25.484375 
L 43.21875 27.484375 
z
M 52.203125 31.203125 
L 52.203125 0 
L 43.21875 0 
L 43.21875 8.296875 
Q 40.140625 3.328125 35.546875 0.953125 
Q 30.953125 -1.421875 24.3125 -1.421875 
Q 15.921875 -1.421875 10.953125 3.296875 
Q 6 8.015625 6 15.921875 
Q 6 25.140625 12.171875 29.828125 
Q 18.359375 34.515625 30.609375 34.515625 
L 43.21875 34.515625 
L 43.21875 35.40625 
Q 43.21875 41.609375 39.140625 45 
Q 35.0625 48.390625 27.6875 48.390625 
Q 23 48.390625 18.546875 47.265625 
Q 14.109375 46.140625 10.015625 43.890625 
L 10.015625 52.203125 
Q 14.9375 54.109375 19.578125 55.046875 
Q 24.21875 56 28.609375 56 
Q 40.484375 56 46.34375 49.84375 
Q 52.203125 43.703125 52.203125 31.203125 
z
" id="DejaVuSans-97"/>
       <path d="M 54.890625 33.015625 
L 54.890625 0 
L 45.90625 0 
L 45.90625 32.71875 
Q 45.90625 40.484375 42.875 44.328125 
Q 39.84375 48.1875 33.796875 48.1875 
Q 26.515625 48.1875 22.3125 43.546875 
Q 18.109375 38.921875 18.109375 30.90625 
L 18.109375 0 
L 9.078125 0 
L 9.078125 54.6875 
L 18.109375 54.6875 
L 18.109375 46.1875 
Q 21.34375 51.125 25.703125 53.5625 
Q 30.078125 56 35.796875 56 
Q 45.21875 56 50.046875 50.171875 
Q 54.890625 44.34375 54.890625 33.015625 
z
" id="DejaVuSans-110"/>
       <path d="M 30.609375 48.390625 
Q 23.390625 48.390625 19.1875 42.75 
Q 14.984375 37.109375 14.984375 27.296875 
Q 14.984375 17.484375 19.15625 11.84375 
Q 23.34375 6.203125 30.609375 6.203125 
Q 37.796875 6.203125 41.984375 11.859375 
Q 46.1875 17.53125 46.1875 27.296875 
Q 46.1875 37.015625 41.984375 42.703125 
Q 37.796875 48.390625 30.609375 48.390625 
z
M 30.609375 56 
Q 42.328125 56 49.015625 48.375 
Q 55.71875 40.765625 55.71875 27.296875 
Q 55.71875 13.875 49.015625 6.21875 
Q 42.328125 -1.421875 30.609375 -1.421875 
Q 18.84375 -1.421875 12.171875 6.21875 
Q 5.515625 13.875 5.515625 27.296875 
Q 5.515625 40.765625 12.171875 48.375 
Q 18.84375 56 30.609375 56 
z
" id="DejaVuSans-111"/>
       <path d="M 2.984375 54.6875 
L 12.5 54.6875 
L 29.59375 8.796875 
L 46.6875 54.6875 
L 56.203125 54.6875 
L 35.6875 0 
L 23.484375 0 
z
" id="DejaVuSans-118"/>
       <path d="M 8.015625 75.875 
L 15.828125 75.875 
Q 23.140625 64.359375 26.78125 53.3125 
Q 30.421875 42.28125 30.421875 31.390625 
Q 30.421875 20.453125 26.78125 9.375 
Q 23.140625 -1.703125 15.828125 -13.1875 
L 8.015625 -13.1875 
Q 14.5 -2 17.703125 9.0625 
Q 20.90625 20.125 20.90625 31.390625 
Q 20.90625 42.671875 17.703125 53.65625 
Q 14.5 64.65625 8.015625 75.875 
z
" id="DejaVuSans-41"/>
      </defs>
      <use xlink:href="#DejaVuSans-70"/>
      <use x="52.019531" xlink:href="#DejaVuSans-117"/>
      <use x="115.398438" xlink:href="#DejaVuSans-122"/>
      <use x="167.888672" xlink:href="#DejaVuSans-122"/>
      <use x="220.378906" xlink:href="#DejaVuSans-101"/>
      <use x="281.902344" xlink:href="#DejaVuSans-114"/>
      <use x="323.015625" xlink:href="#DejaVuSans-32"/>
      <use x="354.802734" xlink:href="#DejaVuSans-40"/>
      <use x="393.816406" xlink:href="#DejaVuSans-104"/>
      <use x="457.195312" xlink:href="#DejaVuSans-105"/>
      <use x="484.978516" xlink:href="#DejaVuSans-103"/>
      <use x="548.455078" xlink:href="#DejaVuSans-104"/>
      <use x="611.833984" xlink:href="#DejaVuSans-101"/>
      <use x="673.357422" xlink:href="#DejaVuSans-115"/>
      <use x="725.457031" xlink:href="#DejaVuSans-116"/>
      <use x="764.666016" xlink:href="#DejaVuSans-32"/>
      <use x="796.453125" xlink:href="#DejaVuSans-109"/>
      <use x="893.865234" xlink:href="#DejaVuSans-101"/>
      <use x="955.388672" xlink:href="#DejaVuSans-100"/>
      <use x="1018.865234" xlink:href="#DejaVuSans-105"/>
      <use x="1046.648438" xlink:href="#DejaVuSans-97"/>
      <use x="1107.927734" xlink:href="#DejaVuSans-110"/>
      <use x="1171.306641" xlink:href="#DejaVuSans-32"/>
      <use x="1203.09375" xlink:href="#DejaVuSans-99"/>
      <use x="1258.074219" xlink:href="#DejaVuSans-111"/>
      <use x="1319.255859" xlink:href="#DejaVuSans-118"/>
      <use x="1378.435547" xlink:href="#DejaVuSans-101"/>
      <use x="1439.958984" xlink:href="#DejaVuSans-114"/>
      <use x="1481.072266" xlink:href="#DejaVuSans-97"/>
      <use x="1542.351562" xlink:href="#DejaVuSans-103"/>
      <use x="1605.828125" xlink:href="#DejaVuSans-101"/>
      <use x="1667.351562" xlink:href="#DejaVuSans-32"/>
      <use x="1699.138672" xlink:href="#DejaVuSans-111"/>
      <use x="1760.320312" xlink:href="#DejaVuSans-110"/>
      <use x="1823.699219" xlink:href="#DejaVuSans-32"/>
      <use x="1855.486328" xlink:href="#DejaVuSans-116"/>
      <use x="1894.695312" xlink:href="#DejaVuSans-104"/>
      <use x="1958.074219" xlink:href="#DejaVuSans-101"/>
      <use x="2019.597656" xlink:href="#DejaVuSans-32"/>
      <use x="2051.384766" xlink:href="#DejaVuSans-108"/>
      <use x="2079.167969" xlink:href="#DejaVuSans-101"/>
      <use x="2140.691406" xlink:href="#DejaVuSans-102"/>
      <use x="2174.146484" xlink:href="#DejaVuSans-116"/>
      <use x="2213.355469" xlink:href="#DejaVuSans-41"/>
     </g>
    </g>
   </g>
   <g id="matplotlib.axis_2">
    <g id="ytick_1">
     <g id="line2d_3">
      <defs>
       <path d="M 0 0 
L -3.5 0 
" id="ma44d5bed1c" style="stroke:#000000;stroke-width:0.8;"/>
      </defs>
      <g>
       <use style="stroke:#000000;stroke-width:0.8;" x="59.690625" xlink:href="#ma44d5bed1c" y="274.627548"/>
      </g>
     </g>
     <g id="text_4">
      <!-- 8000 -->
      <g transform="translate(27.240625 278.426767)scale(0.1 -0.1)">
       <defs>
        <path d="M 31.78125 34.625 
Q 24.75 34.625 20.71875 30.859375 
Q 16.703125 27.09375 16.703125 20.515625 
Q 16.703125 13.921875 20.71875 10.15625 
Q 24.75 6.390625 31.78125 6.390625 
Q 38.8125 6.390625 42.859375 10.171875 
Q 46.921875 13.96875 46.921875 20.515625 
Q 46.921875 27.09375 42.890625 30.859375 
Q 38.875 34.625 31.78125 34.625 
z
M 21.921875 38.8125 
Q 15.578125 40.375 12.03125 44.71875 
Q 8.5 49.078125 8.5 55.328125 
Q 8.5 64.0625 14.71875 69.140625 
Q 20.953125 74.21875 31.78125 74.21875 
Q 42.671875 74.21875 48.875 69.140625 
Q 55.078125 64.0625 55.078125 55.328125 
Q 55.078125 49.078125 51.53125 44.71875 
Q 48 40.375 41.703125 38.8125 
Q 48.828125 37.15625 52.796875 32.3125 
Q 56.78125 27.484375 56.78125 20.515625 
Q 56.78125 9.90625 50.3125 4.234375 
Q 43.84375 -1.421875 31.78125 -1.421875 
Q 19.734375 -1.421875 13.25 4.234375 
Q 6.78125 9.90625 6.78125 20.515625 
Q 6.78125 27.484375 10.78125 32.3125 
Q 14.796875 37.15625 21.921875 38.8125 
z
M 18.3125 54.390625 
Q 18.3125 48.734375 21.84375 45.5625 
Q 25.390625 42.390625 31.78125 42.390625 
Q 38.140625 42.390625 41.71875 45.5625 
Q 45.3125 48.734375 45.3125 54.390625 
Q 45.3125 60.0625 41.71875 63.234375 
Q 38.140625 66.40625 31.78125 66.40625 
Q 25.390625 66.40625 21.84375 63.234375 
Q 18.3125 60.0625 18.3125 54.390625 
z
" id="DejaVuSans-56"/>
        <path d="M 31.78125 66.40625 
Q 24.171875 66.40625 20.328125 58.90625 
Q 16.5 51.421875 16.5 36.375 
Q 16.5 21.390625 20.328125 13.890625 
Q 24.171875 6.390625 31.78125 6.390625 
Q 39.453125 6.390625 43.28125 13.890625 
Q 47.125 21.390625 47.125 36.375 
Q 47.125 51.421875 43.28125 58.90625 
Q 39.453125 66.40625 31.78125 66.40625 
z
M 31.78125 74.21875 
Q 44.046875 74.21875 50.515625 64.515625 
Q 56.984375 54.828125 56.984375 36.375 
Q 56.984375 17.96875 50.515625 8.265625 
Q 44.046875 -1.421875 31.78125 -1.421875 
Q 19.53125 -1.421875 13.0625 8.265625 
Q 6.59375 17.96875 6.59375 36.375 
Q 6.59375 54.828125 13.0625 64.515625 
Q 19.53125 74.21875 31.78125 74.21875 
z
" id="DejaVuSans-48"/>
       </defs>
       <use xlink:href="#DejaVuSans-56"/>
       <use x="63.623047" xlink:href="#DejaVuSans-48"/>
       <use x="127.246094" xlink:href="#DejaVuSans-48"/>
       <use x="190.869141" xlink:href="#DejaVuSans-48"/>
      </g>
     </g>
    </g>
    <g id="ytick_2">
     <g id="line2d_4">
      <g>
       <use style="stroke:#000000;stroke-width:0.8;" x="59.690625" xlink:href="#ma44d5bed1c" y="226.526944"/>
      </g>
     </g>
     <g id="text_5">
      <!-- 10000 -->
      <g transform="translate(20.878125 230.326162)scale(0.1 -0.1)">
       <defs>
        <path d="M 12.40625 8.296875 
L 28.515625 8.296875 
L 28.515625 63.921875 
L 10.984375 60.40625 
L 10.984375 69.390625 
L 28.421875 72.90625 
L 38.28125 72.90625 
L 38.28125 8.296875 
L 54.390625 8.296875 
L 54.390625 0 
L 12.40625 0 
z
" id="DejaVuSans-49"/>
       </defs>
       <use xlink:href="#DejaVuSans-49"/>
       <use x="63.623047" xlink:href="#DejaVuSans-48"/>
       <use x="127.246094" xlink:href="#DejaVuSans-48"/>
       <use x="190.869141" xlink:href="#DejaVuSans-48"/>
       <use x="254.492188" xlink:href="#DejaVuSans-48"/>
      </g>
     </g>
    </g>
    <g id="ytick_3">
     <g id="line2d_5">
      <g>
       <use style="stroke:#000000;stroke-width:0.8;" x="59.690625" xlink:href="#ma44d5bed1c" y="178.42634"/>
      </g>
     </g>
     <g id="text_6">
      <!-- 12000 -->
      <g transform="translate(20.878125 182.225558)scale(0.1 -0.1)">
       <defs>
        <path d="M 19.1875 8.296875 
L 53.609375 8.296875 
L 53.609375 0 
L 7.328125 0 
L 7.328125 8.296875 
Q 12.9375 14.109375 22.625 23.890625 
Q 32.328125 33.6875 34.8125 36.53125 
Q 39.546875 41.84375 41.421875 45.53125 
Q 43.3125 49.21875 43.3125 52.78125 
Q 43.3125 58.59375 39.234375 62.25 
Q 35.15625 65.921875 28.609375 65.921875 
Q 23.96875 65.921875 18.8125 64.3125 
Q 13.671875 62.703125 7.8125 59.421875 
L 7.8125 69.390625 
Q 13.765625 71.78125 18.9375 73 
Q 24.125 74.21875 28.421875 74.21875 
Q 39.75 74.21875 46.484375 68.546875 
Q 53.21875 62.890625 53.21875 53.421875 
Q 53.21875 48.921875 51.53125 44.890625 
Q 49.859375 40.875 45.40625 35.40625 
Q 44.1875 33.984375 37.640625 27.21875 
Q 31.109375 20.453125 19.1875 8.296875 
z
" id="DejaVuSans-50"/>
       </defs>
       <use xlink:href="#DejaVuSans-49"/>
       <use x="63.623047" xlink:href="#DejaVuSans-50"/>
       <use x="127.246094" xlink:href="#DejaVuSans-48"/>
       <use x="190.869141" xlink:href="#DejaVuSans-48"/>
       <use x="254.492188" xlink:href="#DejaVuSans-48"/>
      </g>
     </g>
    </g>
    <g id="ytick_4">
     <g id="line2d_6">
      <g>
       <use style="stroke:#000000;stroke-width:0.8;" x="59.690625" xlink:href="#ma44d5bed1c" y="130.325735"/>
      </g>
     </g>
     <g id="text_7">
      <!-- 14000 -->
      <g transform="translate(20.878125 134.124954)scale(0.1 -0.1)">
       <defs>
        <path d="M 37.796875 64.3125 
L 12.890625 25.390625 
L 37.796875 25.390625 
z
M 35.203125 72.90625 
L 47.609375 72.90625 
L 47.609375 25.390625 
L 58.015625 25.390625 
L 58.015625 17.1875 
L 47.609375 17.1875 
L 47.609375 0 
L 37.796875 0 
L 37.796875 17.1875 
L 4.890625 17.1875 
L 4.890625 26.703125 
z
" id="DejaVuSans-52"/>
       </defs>
       <use xlink:href="#DejaVuSans-49"/>
       <use x="63.623047" xlink:href="#DejaVuSans-52"/>
       <use x="127.246094" xlink:href="#DejaVuSans-48"/>
       <use x="190.869141" xlink:href="#DejaVuSans-48"/>
       <use x="254.492188" xlink:href="#DejaVuSans-48"/>
      </g>
     </g>
    </g>
    <g id="ytick_5">
     <g id="line2d_7">
      <g>
       <use style="stroke:#000000;stroke-width:0.8;" x="59.690625" xlink:href="#ma44d5bed1c" y="82.225131"/>
      </g>
     </g>
     <g id="text_8">
      <!-- 16000 -->
      <g transform="translate(20.878125 86.02435)scale(0.1 -0.1)">
       <defs>
        <path d="M 33.015625 40.375 
Q 26.375 40.375 22.484375 35.828125 
Q 18.609375 31.296875 18.609375 23.390625 
Q 18.609375 15.53125 22.484375 10.953125 
Q 26.375 6.390625 33.015625 6.390625 
Q 39.65625 6.390625 43.53125 10.953125 
Q 47.40625 15.53125 47.40625 23.390625 
Q 47.40625 31.296875 43.53125 35.828125 
Q 39.65625 40.375 33.015625 40.375 
z
M 52.59375 71.296875 
L 52.59375 62.3125 
Q 48.875 64.0625 45.09375 64.984375 
Q 41.3125 65.921875 37.59375 65.921875 
Q 27.828125 65.921875 22.671875 59.328125 
Q 17.53125 52.734375 16.796875 39.40625 
Q 19.671875 43.65625 24.015625 45.921875 
Q 28.375 48.1875 33.59375 48.1875 
Q 44.578125 48.1875 50.953125 41.515625 
Q 57.328125 34.859375 57.328125 23.390625 
Q 57.328125 12.15625 50.6875 5.359375 
Q 44.046875 -1.421875 33.015625 -1.421875 
Q 20.359375 -1.421875 13.671875 8.265625 
Q 6.984375 17.96875 6.984375 36.375 
Q 6.984375 53.65625 15.1875 63.9375 
Q 23.390625 74.21875 37.203125 74.21875 
Q 40.921875 74.21875 44.703125 73.484375 
Q 48.484375 72.75 52.59375 71.296875 
z
" id="DejaVuSans-54"/>
       </defs>
       <use xlink:href="#DejaVuSans-49"/>
       <use x="63.623047" xlink:href="#DejaVuSans-54"/>
       <use x="127.246094" xlink:href="#DejaVuSans-48"/>
       <use x="190.869141" xlink:href="#DejaVuSans-48"/>
       <use x="254.492188" xlink:href="#DejaVuSans-48"/>
      </g>
     </g>
    </g>
    <g id="ytick_6">
     <g id="line2d_8">
      <g>
       <use style="stroke:#000000;stroke-width:0.8;" x="59.690625" xlink:href="#ma44d5bed1c" y="34.124527"/>
      </g>
     </g>
     <g id="text_9">
      <!-- 18000 -->
      <g transform="translate(20.878125 37.923746)scale(0.1 -0.1)">
       <use xlink:href="#DejaVuSans-49"/>
       <use x="63.623047" xlink:href="#DejaVuSans-56"/>
       <use x="127.246094" xlink:href="#DejaVuSans-48"/>
       <use x="190.869141" xlink:href="#DejaVuSans-48"/>
       <use x="254.492188" xlink:href="#DejaVuSans-48"/>
      </g>
     </g>
    </g>
    <g id="text_10">
     <!-- Reached region coverage -->
     <g transform="translate(14.798438 219.136625)rotate(-90)scale(0.1 -0.1)">
      <defs>
       <path d="M 44.390625 34.1875 
Q 47.5625 33.109375 50.5625 29.59375 
Q 53.5625 26.078125 56.59375 19.921875 
L 66.609375 0 
L 56 0 
L 46.6875 18.703125 
Q 43.0625 26.03125 39.671875 28.421875 
Q 36.28125 30.8125 30.421875 30.8125 
L 19.671875 30.8125 
L 19.671875 0 
L 9.8125 0 
L 9.8125 72.90625 
L 32.078125 72.90625 
Q 44.578125 72.90625 50.734375 67.671875 
Q 56.890625 62.453125 56.890625 51.90625 
Q 56.890625 45.015625 53.6875 40.46875 
Q 50.484375 35.9375 44.390625 34.1875 
z
M 19.671875 64.796875 
L 19.671875 38.921875 
L 32.078125 38.921875 
Q 39.203125 38.921875 42.84375 42.21875 
Q 46.484375 45.515625 46.484375 51.90625 
Q 46.484375 58.296875 42.84375 61.546875 
Q 39.203125 64.796875 32.078125 64.796875 
z
" id="DejaVuSans-82"/>
      </defs>
      <use xlink:href="#DejaVuSans-82"/>
      <use x="64.982422" xlink:href="#DejaVuSans-101"/>
      <use x="126.505859" xlink:href="#DejaVuSans-97"/>
      <use x="187.785156" xlink:href="#DejaVuSans-99"/>
      <use x="242.765625" xlink:href="#DejaVuSans-104"/>
      <use x="306.144531" xlink:href="#DejaVuSans-101"/>
      <use x="367.667969" xlink:href="#DejaVuSans-100"/>
      <use x="431.144531" xlink:href="#DejaVuSans-32"/>
      <use x="462.931641" xlink:href="#DejaVuSans-114"/>
      <use x="501.794922" xlink:href="#DejaVuSans-101"/>
      <use x="563.318359" xlink:href="#DejaVuSans-103"/>
      <use x="626.794922" xlink:href="#DejaVuSans-105"/>
      <use x="654.578125" xlink:href="#DejaVuSans-111"/>
      <use x="715.759766" xlink:href="#DejaVuSans-110"/>
      <use x="779.138672" xlink:href="#DejaVuSans-32"/>
      <use x="810.925781" xlink:href="#DejaVuSans-99"/>
      <use x="865.90625" xlink:href="#DejaVuSans-111"/>
      <use x="927.087891" xlink:href="#DejaVuSans-118"/>
      <use x="986.267578" xlink:href="#DejaVuSans-101"/>
      <use x="1047.791016" xlink:href="#DejaVuSans-114"/>
      <use x="1088.904297" xlink:href="#DejaVuSans-97"/>
      <use x="1150.183594" xlink:href="#DejaVuSans-103"/>
      <use x="1213.660156" xlink:href="#DejaVuSans-101"/>
     </g>
    </g>
   </g>
   <g id="line2d_9">
    <path clip-path="url(#pf167a1cab7)" d="M 148.970625 218.421992 
L 148.970625 92.326258 
" style="fill:none;stroke:#3f3f3f;stroke-linecap:square;stroke-width:1.5;"/>
   </g>
   <g id="line2d_10">
    <path clip-path="url(#pf167a1cab7)" d="M 148.970625 204.71332 
L 148.970625 134.907318 
" style="fill:none;stroke:#3f3f3f;stroke-linecap:square;stroke-width:4.5;"/>
   </g>
   <g id="line2d_11">
    <path clip-path="url(#pf167a1cab7)" d="M 327.530625 221.548531 
L 327.530625 192.471716 
" style="fill:none;stroke:#3f3f3f;stroke-linecap:square;stroke-width:1.5;"/>
   </g>
   <g id="line2d_12">
    <path clip-path="url(#pf167a1cab7)" d="M 327.530625 214.652107 
L 327.530625 197.053298 
" style="fill:none;stroke:#3f3f3f;stroke-linecap:square;stroke-width:4.5;"/>
   </g>
   <g id="patch_3">
    <path d="M 59.690625 274.627548 
L 59.690625 34.124527 
" style="fill:none;stroke:#000000;stroke-linecap:square;stroke-linejoin:miter;stroke-width:0.8;"/>
   </g>
   <g id="patch_4">
    <path d="M 148.970625 288.430125 
L 327.530625 288.430125 
" style="fill:none;stroke:#000000;stroke-linecap:square;stroke-linejoin:miter;stroke-width:0.8;"/>
   </g>
   <g id="PathCollection_1">
    <defs>
     <path d="M 0 1.5 
C 0.397805 1.5 0.77937 1.341951 1.06066 1.06066 
C 1.341951 0.77937 1.5 0.397805 1.5 0 
C 1.5 -0.397805 1.341951 -0.77937 1.06066 -1.06066 
C 0.77937 -1.341951 0.397805 -1.5 0 -1.5 
C -0.397805 -1.5 -0.77937 -1.341951 -1.06066 -1.06066 
C -1.341951 -0.77937 -1.5 -0.397805 -1.5 0 
C -1.5 0.397805 -1.341951 0.77937 -1.06066 1.06066 
C -0.77937 1.341951 -0.397805 1.5 0 1.5 
z
" id="m06594385d5" style="stroke:#3f3f3f;"/>
    </defs>
    <g clip-path="url(#pf167a1cab7)">
     <use style="fill:#ffffff;stroke:#3f3f3f;" x="148.970625" xlink:href="#m06594385d5" y="175.371951"/>
    </g>
   </g>
   <g id="PathCollection_2">
    <g clip-path="url(#pf167a1cab7)">
     <use style="fill:#ffffff;stroke:#3f3f3f;" x="327.530625" xlink:href="#m06594385d5" y="211.53158"/>
    </g>
   </g>
   <g id="text_11">
    <!-- curl_curl_fuzzer (6h, 10 trials/fuzzer) -->
    <g transform="translate(128.4975 16.318125)scale(0.12 -0.12)">
     <defs>
      <path d="M 50.984375 -16.609375 
L 50.984375 -23.578125 
L -0.984375 -23.578125 
L -0.984375 -16.609375 
z
" id="DejaVuSans-95"/>
      <path d="M 11.71875 12.40625 
L 22.015625 12.40625 
L 22.015625 4 
L 14.015625 -11.625 
L 7.71875 -11.625 
L 11.71875 4 
z
" id="DejaVuSans-44"/>
      <path d="M 25.390625 72.90625 
L 33.6875 72.90625 
L 8.296875 -9.28125 
L 0 -9.28125 
z
" id="DejaVuSans-47"/>
     </defs>
     <use xlink:href="#DejaVuSans-99"/>
     <use x="54.980469" xlink:href="#DejaVuSans-117"/>
     <use x="118.359375" xlink:href="#DejaVuSans-114"/>
     <use x="159.472656" xlink:href="#DejaVuSans-108"/>
     <use x="187.255859" xlink:href="#DejaVuSans-95"/>
     <use x="237.255859" xlink:href="#DejaVuSans-99"/>
     <use x="292.236328" xlink:href="#DejaVuSans-117"/>
     <use x="355.615234" xlink:href="#DejaVuSans-114"/>
     <use x="396.728516" xlink:href="#DejaVuSans-108"/>
     <use x="424.511719" xlink:href="#DejaVuSans-95"/>
     <use x="474.511719" xlink:href="#DejaVuSans-102"/>
     <use x="509.716797" xlink:href="#DejaVuSans-117"/>
     <use x="573.095703" xlink:href="#DejaVuSans-122"/>
     <use x="625.585938" xlink:href="#DejaVuSans-122"/>
     <use x="678.076172" xlink:href="#DejaVuSans-101"/>
     <use x="739.599609" xlink:href="#DejaVuSans-114"/>
     <use x="780.712891" xlink:href="#DejaVuSans-32"/>
     <use x="812.5" xlink:href="#DejaVuSans-40"/>
     <use x="851.513672" xlink:href="#DejaVuSans-54"/>
     <use x="915.136719" xlink:href="#DejaVuSans-104"/>
     <use x="978.515625" xlink:href="#DejaVuSans-44"/>
     <use x="1010.302734" xlink:href="#DejaVuSans-32"/>
     <use x="1042.089844" xlink:href="#DejaVuSans-49"/>
     <use x="1105.712891" xlink:href="#DejaVuSans-48"/>
     <use x="1169.335938" xlink:href="#DejaVuSans-32"/>
     <use x="1201.123047" xlink:href="#DejaVuSans-116"/>
     <use x="1240.332031" xlink:href="#DejaVuSans-114"/>
     <use x="1281.445312" xlink:href="#DejaVuSans-105"/>
     <use x="1309.228516" xlink:href="#DejaVuSans-97"/>
     <use x="1370.507812" xlink:href="#DejaVuSans-108"/>
     <use x="1398.291016" xlink:href="#DejaVuSans-115"/>
     <use x="1450.390625" xlink:href="#DejaVuSans-47"/>
     <use x="1484.082031" xlink:href="#DejaVuSans-102"/>
     <use x="1519.287109" xlink:href="#DejaVuSans-117"/>
     <use x="1582.666016" xlink:href="#DejaVuSans-122"/>
     <use x="1635.15625" xlink:href="#DejaVuSans-122"/>
     <use x="1687.646484" xlink:href="#DejaVuSans-101"/>
     <use x="1749.169922" xlink:href="#DejaVuSans-114"/>
     <use x="1790.283203" xlink:href="#DejaVuSans-41"/>
    </g>
   </g>
  </g>
 </g>
 <defs>
  <clipPath id="pf167a1cab7">
   <rect height="266.112" width="357.12" x="59.690625" y="22.318125"/>
  </clipPath>
 </defs>
</svg>
